<mxfile host="app.diagrams.net" modified="2023-09-04T01:35:39.129Z" agent="Mozilla/5.0 (Windows NT 10.0; Win64; x64) AppleWebKit/537.36 (KHTML, like Gecko) Chrome/116.0.0.0 Safari/537.36 Edg/116.0.1938.69" etag="O9Oiq341xOboXcixQnF2" version="21.7.1" type="github">
  <diagram name="Page-1" id="c4acf3e9-155e-7222-9cf6-157b1a14988f">
    <mxGraphModel dx="1042" dy="569" grid="1" gridSize="10" guides="1" tooltips="1" connect="1" arrows="1" fold="1" page="1" pageScale="1" pageWidth="850" pageHeight="1100" background="none" math="0" shadow="0">
      <root>
        <mxCell id="0" />
        <mxCell id="1" parent="0" />
        <mxCell id="7Kz6zvEaNfCPji0yCh6r-14" value="&lt;div style=&quot;box-sizing:border-box;width:100%;background:#e4e4e4;padding:2px;&quot;&gt;Usuarios&lt;/div&gt;&lt;table style=&quot;width:100%;font-size:1em;&quot; cellpadding=&quot;2&quot; cellspacing=&quot;0&quot;&gt;&lt;tbody&gt;&lt;tr&gt;&lt;td&gt;PK&lt;/td&gt;&lt;td&gt;idUsuario&lt;/td&gt;&lt;/tr&gt;&lt;tr&gt;&lt;td&gt;&lt;br&gt;&lt;/td&gt;&lt;td&gt;nombreCompleto&lt;/td&gt;&lt;/tr&gt;&lt;tr&gt;&lt;td&gt;&lt;/td&gt;&lt;td&gt;email&lt;br&gt;contrasenia&lt;br&gt;rol&lt;br&gt;telefono&lt;/td&gt;&lt;/tr&gt;&lt;/tbody&gt;&lt;/table&gt;" style="verticalAlign=top;align=left;overflow=fill;html=1;whiteSpace=wrap;" parent="1" vertex="1">
          <mxGeometry x="60" y="30" width="170" height="120" as="geometry" />
        </mxCell>
        <mxCell id="7Kz6zvEaNfCPji0yCh6r-15" style="edgeStyle=orthogonalEdgeStyle;rounded=0;orthogonalLoop=1;jettySize=auto;html=1;exitX=1;exitY=0.25;exitDx=0;exitDy=0;entryX=-0.007;entryY=0.213;entryDx=0;entryDy=0;entryPerimeter=0;" parent="1" source="7Kz6zvEaNfCPji0yCh6r-17" target="7Kz6zvEaNfCPji0yCh6r-19" edge="1">
          <mxGeometry relative="1" as="geometry" />
        </mxCell>
        <mxCell id="7Kz6zvEaNfCPji0yCh6r-16" style="edgeStyle=orthogonalEdgeStyle;rounded=0;orthogonalLoop=1;jettySize=auto;html=1;exitX=0.5;exitY=1;exitDx=0;exitDy=0;entryX=1.005;entryY=0.578;entryDx=0;entryDy=0;entryPerimeter=0;" parent="1" source="7Kz6zvEaNfCPji0yCh6r-17" target="7Kz6zvEaNfCPji0yCh6r-18" edge="1">
          <mxGeometry relative="1" as="geometry" />
        </mxCell>
        <mxCell id="7Kz6zvEaNfCPji0yCh6r-17" value="&lt;div style=&quot;box-sizing:border-box;width:100%;background:#e4e4e4;padding:2px;&quot;&gt;Direccion&lt;/div&gt;&lt;table style=&quot;width:100%;font-size:1em;&quot; cellpadding=&quot;2&quot; cellspacing=&quot;0&quot;&gt;&lt;tbody&gt;&lt;tr&gt;&lt;td&gt;PK&lt;/td&gt;&lt;td&gt;idDireccion&lt;/td&gt;&lt;/tr&gt;&lt;tr&gt;&lt;td&gt;&lt;br&gt;&lt;/td&gt;&lt;td&gt;calle&lt;/td&gt;&lt;/tr&gt;&lt;tr&gt;&lt;td&gt;&lt;/td&gt;&lt;td&gt;numeroExterior&lt;br&gt;numeroInterior&lt;br&gt;pais&lt;br&gt;cp&lt;br&gt;entidad&lt;br&gt;delegacionMunicipio&lt;br&gt;localidad&lt;br&gt;colonia&lt;br&gt;referencia&lt;/td&gt;&lt;/tr&gt;&lt;/tbody&gt;&lt;/table&gt;" style="verticalAlign=top;align=left;overflow=fill;html=1;whiteSpace=wrap;" parent="1" vertex="1">
          <mxGeometry x="320" y="90" width="180" height="190" as="geometry" />
        </mxCell>
        <mxCell id="7Kz6zvEaNfCPji0yCh6r-18" value="&lt;div style=&quot;box-sizing:border-box;width:100%;background:#e4e4e4;padding:2px;&quot;&gt;Agenda&lt;/div&gt;&lt;table style=&quot;width:100%;font-size:1em;&quot; cellpadding=&quot;2&quot; cellspacing=&quot;0&quot;&gt;&lt;tbody&gt;&lt;tr&gt;&lt;td&gt;PK&lt;/td&gt;&lt;td&gt;idCita&lt;/td&gt;&lt;/tr&gt;&lt;tr&gt;&lt;td&gt;FK&lt;/td&gt;&lt;td&gt;idDireccion&lt;/td&gt;&lt;/tr&gt;&lt;tr&gt;&lt;td&gt;&lt;/td&gt;&lt;td&gt;fecha&lt;br&gt;hora&lt;br&gt;&lt;/td&gt;&lt;/tr&gt;&lt;/tbody&gt;&lt;/table&gt;" style="verticalAlign=top;align=left;overflow=fill;html=1;whiteSpace=wrap;" parent="1" vertex="1">
          <mxGeometry x="60" y="250" width="180" height="90" as="geometry" />
        </mxCell>
        <mxCell id="7Kz6zvEaNfCPji0yCh6r-19" value="&lt;div style=&quot;box-sizing:border-box;width:100%;background:#e4e4e4;padding:2px;&quot;&gt;Cliente&lt;/div&gt;&lt;table style=&quot;width:100%;font-size:1em;&quot; cellpadding=&quot;2&quot; cellspacing=&quot;0&quot;&gt;&lt;tbody&gt;&lt;tr&gt;&lt;td&gt;PK&lt;/td&gt;&lt;td&gt;idCliente&lt;/td&gt;&lt;/tr&gt;&lt;tr&gt;&lt;td&gt;FK&lt;/td&gt;&lt;td&gt;idDireccion&lt;/td&gt;&lt;/tr&gt;&lt;tr&gt;&lt;td&gt;&lt;/td&gt;&lt;td&gt;numeroCliente&lt;br&gt;tipoCliente&lt;br style=&quot;border-color: var(--border-color);&quot;&gt;registroSuspendido&lt;br style=&quot;border-color: var(--border-color);&quot;&gt;nombreComercial&lt;br style=&quot;border-color: var(--border-color);&quot;&gt;fechaRegistro&lt;br style=&quot;border-color: var(--border-color);&quot;&gt;fechaUltimaCompra&lt;br style=&quot;border-color: var(--border-color);&quot;&gt;giroComercial&lt;br style=&quot;border-color: var(--border-color);&quot;&gt;email&lt;br style=&quot;border-color: var(--border-color);&quot;&gt;telefono1&lt;br style=&quot;border-color: var(--border-color);&quot;&gt;telefono2&lt;br style=&quot;border-color: var(--border-color);&quot;&gt;descuentoImporteVenta&lt;br&gt;&lt;/td&gt;&lt;/tr&gt;&lt;/tbody&gt;&lt;/table&gt;" style="verticalAlign=top;align=left;overflow=fill;html=1;whiteSpace=wrap;" parent="1" vertex="1">
          <mxGeometry x="570" y="90" width="180" height="220" as="geometry" />
        </mxCell>
      </root>
    </mxGraphModel>
  </diagram>
</mxfile>
